<svg xmlns="http://www.w3.org/2000/svg" viewBox="0 0 1000 220" width="1000" height="220">
<defs>
<linearGradient id="holo" x1="0" y1="0" x2="1" y2="1">
<stop offset="0" stop-color="#ff6ec7"><animate attributeName="stop-color" values="#ff6ec7;#00e5ff;#ffe81f;#8b5cf6;#ff6ec7" dur="6s" repeatCount="indefinite"/></stop>
<stop offset="0.5" stop-color="#00e5ff"><animate attributeName="stop-color" values="#00e5ff;#ffe81f;#8b5cf6;#ff6ec7;#00e5ff" dur="6s" repeatCount="indefinite"/></stop>
<stop offset="1" stop-color="#8b5cf6"><animate attributeName="stop-color" values="#8b5cf6;#ff6ec7;#00e5ff;#ffe81f;#8b5cf6" dur="6s" repeatCount="indefinite"/></stop></linearGradient>
<linearGradient id="bd" x1="0" y1="0" x2="1" y2="0" gradientUnits="userSpaceOnUse"><stop offset="0" stop-color="#00e5ff"/><stop offset="0.5" stop-color="#ff2bd6"/><stop offset="1" stop-color="#ffb703"/><animateTransform attributeName="gradientTransform" type="translate" values="-1000 0;1000 0;-1000 0" dur="8s" repeatCount="indefinite"/></linearGradient>
<linearGradient id="shine" x1="0" y1="0" x2="1" y2="0"><stop offset="0" stop-color="#fff" stop-opacity="0"/><stop offset="0.5" stop-color="#fff" stop-opacity="0.55"/><stop offset="1" stop-color="#fff" stop-opacity="0"/></linearGradient>
<clipPath id="cc"><rect x="0" y="0" width="112" height="156" rx="10"/></clipPath>
<filter id="b" x="-50%" y="-50%" width="200%" height="200%"><feGaussianBlur stdDeviation="9"/></filter>
</defs>
<rect x="1" y="1" width="998" height="218" rx="14" fill="#0d1117" stroke="url(#bd)" stroke-width="2"/>
<g transform="translate(78 32) rotate(-7 56 78)">
<rect x="-4" y="-4" width="120" height="164" rx="14" fill="url(#holo)" opacity="0.55" filter="url(#b)"/>
<rect x="0" y="0" width="112" height="156" rx="10" fill="url(#holo)"/>
<rect x="8" y="8" width="96" height="140" rx="6" fill="#0d1117" opacity="0.28"/>
<circle cx="56" cy="70" r="30" fill="none" stroke="#fff" stroke-opacity="0.8" stroke-width="2"/>
<path d="M56 40 L62 64 L86 70 L62 76 L56 100 L50 76 L26 70 L50 64Z" fill="#fff" fill-opacity="0.85"/>
<text x="56" y="128" text-anchor="middle" font-family="'SF Mono','JetBrains Mono',Consolas,'DejaVu Sans Mono',monospace" font-weight="700" font-size="15" fill="#fff" letter-spacing="4">VMAX</text>
<g clip-path="url(#cc)"><rect x="-60" y="-20" width="50" height="200" fill="url(#shine)" transform="rotate(20)"><animate attributeName="x" values="-80;180;180" keyTimes="0;0.5;1" dur="3.5s" repeatCount="indefinite"/></rect></g>
</g>
<text x="250" y="76" font-family="Impact,'Arial Black','Segoe UI',Helvetica,sans-serif" font-weight="900" font-size="46" fill="#fff" letter-spacing="3">EEVEE VMAX</text>
<text x="250" y="106" font-family="'SF Mono','JetBrains Mono',Consolas,'DejaVu Sans Mono',monospace" font-size="16" fill="#8b949e">Interactive holographic card · Three.js + custom GLSL shader</text>
<g>
<rect x="250" y="130" width="230" height="46" rx="8" fill="#00e5ff" fill-opacity="0.08" stroke="#00e5ff" stroke-width="2"><animate attributeName="stroke-opacity" values="1;0.35;1" dur="2s" repeatCount="indefinite"/></rect>
<polygon points="274,143 274,163 292,153" fill="#00e5ff"/>
<text x="304" y="159" font-family="'SF Mono','JetBrains Mono',Consolas,'DejaVu Sans Mono',monospace" font-weight="700" font-size="18" fill="#00e5ff" letter-spacing="3">LAUNCH DEMO</text>
</g>
<text x="506" y="159" font-family="'SF Mono','JetBrains Mono',Consolas,'DejaVu Sans Mono',monospace" font-size="14" fill="#6e7681">drag to rotate · scroll to zoom · double-click to reset</text>
</svg>